<svg xmlns="http://www.w3.org/2000/svg" width="83.478" height="97.66" viewBox="0 0 83.478 97.66"><path id="Path_209" data-name="Path 209" d="M42.368,3.927c-.558.139-.976,1.255-1.813.7s0-1.255.7-1.255a1.255,1.255,0,0,1,1.116.7m1.534,0c-.139-.139-.418,0-.7-.139s-.558.976-.418,1.534h.139a5.44,5.44,0,0,0,1.116-1.395M57.712,40.332A3.543,3.543,0,0,0,56.6,42.285c0,.558.7,2.65,1.116,2.371a2.092,2.092,0,0,1-.279-2.65c.279-.558,1.534-1.674,1.534-2.79Zm6.835-6.137c.7-.837-.418-1.395-.418-2.371a13.251,13.251,0,0,1-1.116,3.906,9.346,9.346,0,0,0,1.116-1.953l.418.418M57.293,46.051c0-.7-1.116-1.255-1.674-1.534s-1.534,1.116-1.116,1.674.837-.837.976-.558,1.534.7,2.232,1.395l-.418-1.116m3.487-1.534c-.139,0-.7.418-.7,0s.837,1.534.837,1.534a20.48,20.48,0,0,0,.7,2.371c-.139-1.395.418-1.953-.837-3.906M45.437,63.626v0ZM48.506,66a2.371,2.371,0,0,0-.139-1.255V66m-14.088.976h.139V65.858h-.139Zm5.161,2.371c-.418-.418,0-1.116,0-1.813Zm-.139-.837h.139V66.695H39.3Zm23.433-2.79a5.3,5.3,0,0,0-.279-2.092,4.464,4.464,0,0,0,.279,2.092M38.184,63.347c.558.139.139,1.395.418,1.813s-.279-1.674.418-1.813.279-.139.418.139V65.3c-.139-.139,0-1.674-.279-1.674a40.729,40.729,0,0,1-.139,5.858c-.139.139-.279-.139-.418-.139a6.974,6.974,0,0,0,.139-3.766c-.279,1.255-.139,2.65-.418,3.906h-.139c0-1.953.279-4.185.139-6.137m-1.534,0c.558,0,.139.7.418.837s0-.7.139-.837h.139c.139.418,0,1.116.139,1.674V63.487a18.691,18.691,0,0,1-.139,5.579c0,.279-.139-.418-.139-.7l-.279.837c-.418-.279.418-3.766-.139-4.045l-.558,4.185c-.139-1.813.279-4.185.139-6.137m5.161-.139a3.069,3.069,0,0,1,1.674.279,1.4,1.4,0,0,0,.139,1.255h.139v1.255c.139-.139-.139-.7-.139-.976h-.139a13.391,13.391,0,0,1-.279,4.185c-.976.418-2.092,0-3.208.139v-.837a18.551,18.551,0,0,0-.139-5.161c.558-.418,1.534,0,2.092-.279m7.811,2.232c-.279-.7.139-1.813-.418-2.371a11.577,11.577,0,0,0,.418,2.371m.418-1.534v-.837h.139ZM46.971,67.95c0,.279.418.558.139.837a3.905,3.905,0,0,1-1.813.139c-.418,0,.139-5.021-.139-5.161s-.279,5.161-.7,5.021.418-4.045,0-5.161-.139,1.116-.139.976-.418-1.674.139-1.534.7-.139.976-.139h.139V62.51c.279-.139.418.418.558,0s.279.139.418.279.139-.418.418-.279,0,.418.139.418,0-.418.279-.558.837.279,1.395.139,0,3.069.418,4.324l.279-.279a6.974,6.974,0,0,1,.139,1.953c-.837-.139,0-.976-.418-1.395l-.279.279a3.208,3.208,0,0,0-.279-1.674c-.279.976.139,1.674-.139,2.65h-.139a29.571,29.571,0,0,0-.418-5.021,14.925,14.925,0,0,0,.139,5.021c-.139.139-.139.279-.418.139a3.069,3.069,0,0,1-.139-1.953,15.343,15.343,0,0,0-.139-3.627c0,.7-.139-.139-.139.558Zm15.2-3.627c0,.418-.139-2.65-.558-2.65l.558,2.65M50.458,62.789c-.139-.418.418-.558.418-.139v.418c-.139,0-.139-.7-.418-.279M60.5,61.673c.418.418.139,2.65.558,2.65a10.043,10.043,0,0,0,0-1.953H61.2a11.159,11.159,0,0,1,.279,4.185v.976a1.179,1.179,0,0,0-.279-.837c-.279-.279-.7.558-.558,1.116s-.279-.418-.558-.139a2.082,2.082,0,0,1-1.395.418c-.558,0-3.069.837-4.464-.279s-.976-.976-1.674-.837a.976.976,0,0,0-.7-.837c-.418.139-.139.837-.279,1.116s.139,1.116-.139,1.255-.279-3.208-.7-4.742-.139-.139-.279-.279h0c.139.279.279.558.7.558s.279-.976.837-.837,2.65-.7,3.906-.976a8.648,8.648,0,0,1,2.929-.139H59.8v-.279c.279.279-.139,1.534.418,1.534V61.813m-47.983-.7a47.285,47.285,0,0,0,14.227,2.511h4.185c.418.7,1.116-.139,1.255.418s1.116-.139.7.976,0,.976.558.976,0-2.092.139-2.79l.418.418L34,63.347l.279,1.534V63.487c.279.279.418-.139.7-.139s-.139,1.116.279,1.534-.7-1.953.558-1.395.418,4.185-.418,6a37.87,37.87,0,0,0-.139-3.906c-.418.976-.139,2.092-.279,3.069s.139.7-.279.7a16.041,16.041,0,0,0,0-3.627c-.418.7,0,1.674-.279,2.371l-.279,1.255c-.418-.139.139-1.813-.279-2.092s.139,1.813-.279,2.092.279-3.766-.139-5.021H33.3v4.742c-5.579-.418-11.438-.558-16.738-1.953a3.258,3.258,0,0,1-2.232-1.395l-.7-.558-.139.418V64.463h0l-.139.7a3.466,3.466,0,0,0-.139-1.116c-.139-.139-.139.279-.139.139v.976c-.139.139,0-2.371-.139-2.232s-.139,1.674-.279,2.092a19.388,19.388,0,0,1,0-2.092s-.139-.279-.279.139a6.835,6.835,0,0,1-.139,1.116s0-.837-.139-.7-.139.7-.139.7a7.532,7.532,0,0,1,.418-3.069M39.858,62.65c3.069-.418,5.858-1.395,7.951-1.674-.976,1.255-5.579,2.232-7.951,1.674M16.424,60.976a4.045,4.045,0,0,0,2.092.976,2.371,2.371,0,0,0,2.79-.837A36.266,36.266,0,0,1,33.023,62.51c.139.139.279.279.139.418s-2.371.139-3.627.418h-.418a44.356,44.356,0,0,1-8.648-.7,13.53,13.53,0,0,1-4.742-1.116c.279-.418.418-.279.7-.139m38.219-.139c.837.139,1.674-.837,2.232.139s0,.7-.139.837a30.687,30.687,0,0,1-5.161.279.7.7,0,0,1-.139-.837l3.208-.418m14.227-.139c.976-.837.837.7.976,1.255s.418,3.069-.418,3.487-.139-.418-.418-.418a26.083,26.083,0,0,0-.139-4.324m-9.764-.558a1.953,1.953,0,0,1,1.813.837c0,.837-1.116.418-1.674.7a1.674,1.674,0,0,1-1.395-.7c0-.139.139-.279-.139-.418s.976,0,1.255-.418m-39.474-.139c.558-.139.7-.7,1.395-.7s-1.255.418-.976,1.395a1.4,1.4,0,0,1-.976.558,1.4,1.4,0,0,1,.418-1.116m43.38-1.395a4.464,4.464,0,0,1,1.116.7.791.791,0,0,1-.558,1.116h-.7c.139-.418-.279-1.674.279-1.813M21.306,59.3c.139-.139.418-.279.279-.418l-.418.418h.139m35.429-2.79c.279.837-.837,1.534-1.116,1.534l-2.092.418L56.6,56.512m-32.779.139a2.65,2.65,0,0,1-1.255.976c.279-.558.837-.558,1.255-.976m39.2-.837a1.953,1.953,0,0,1,.976,1.953.7.7,0,0,1-.837-.418c-.139-.418-.558-1.116-.139-1.534m-8.09-4.742c1.534.418,5.3,1.395,6.835.7A2.232,2.232,0,0,1,60.5,52.886l2.092.558c-1.116,0-5.719.837-6.556-.418l-1.116-1.953m7.532.139c1.395.139,1.395,1.813,1.534,2.232a.935.935,0,0,1-.418,1.116l-.837.558c.976-1.953-.139-2.511-.139-3.906M43.345,42.564l-3.766,2.65a43.517,43.517,0,0,1,3.906-2.929Zm4.185-.558a.418.418,0,0,0-.139-.7v.558c.139.139.139.279.279.139M45.3,39.635c.279-.139.558.139.837.139s-1.255.139-1.395.976-.279.558-.418.7A2.426,2.426,0,0,1,45.3,39.5m4.045-.279h.418l-.7.558v-.7Zm13.39-1.395c0-.7.837,0,.837.139s1.395.7,1.395.837-1.255.558-1.255,1.255a15.9,15.9,0,0,1-.837,3.069l-.418.558c-.139-1.534,1.534-4.045.139-5.858M50.737,39.356c1.813-.279,3.208-1.534,4.882-1.674l-.279,1.953c-1.255,1.395-1.255,3.208-2.232,4.742a3,3,0,0,0-.279,3.348c.418.976,1.116,1.674.976,2.65a5.021,5.021,0,0,0-.837,2.929c.976.418,0,1.674.837,2.232s-1.255,1.116-1.395,1.953-.558.837-.976,1.255a7.95,7.95,0,0,0-3.208.7c-.418.279-.418.558-.837.837H30.512c-2.929-.418-5.719-.139-8.927-.139,0-.976,1.116-1.813,1.813-2.79L27.3,54.56l8.509-6.137,8.648-6.137c.976-.418,2.371,1.674,2.929-.418.837.418,1.534-.7,2.371-.558s-.139-2.232,1.255-2.232M54.5,34.195c.7-.139.7.558,1.116.837s0,1.255-.558,1.395,0,.279-.139.279h-.279c.139-.139-.139-.279-.139-.418s-.418.558-.837.558a9.485,9.485,0,0,1-3.348,1.395h0A14.506,14.506,0,0,1,54.5,34.195m-1.255-3.487c.558-.139,1.255-.139,1.534.418a1.367,1.367,0,0,1-.418,1.674v.418c-1.953,1.813-4.045,3.208-5.161,5.579-.976,0-.558,1.255-1.255,1.674v.418h-.976a1.4,1.4,0,0,1,.139-1.534c.7-.7,1.255-1.395,1.953-1.395v-.279a10.461,10.461,0,0,1,1.813-3.069c.279-.418.279-1.116.7-1.534V32.8c.279-.837.7-1.953,1.813-2.092m4.464,8.509a11.3,11.3,0,0,1,1.534-3.627c.418-1.116-.837-1.674-.7-2.79h.279c.139.279-.139.7.139.837s-.7-1.395.418-1.953.418-1.116.418-1.813,0,2.511,1.255,2.232.279-.558.418-.837a11.717,11.717,0,0,1-.837-2.79c.139-.139,0-.279.279-.558s.279.279.976.976a4.185,4.185,0,0,0,0-2.092c.7-.837,1.534.7,1.674-.976s.418.558.558.7-.418,0-.418.279l.279.7.418.418.7.418a.976.976,0,0,1,.418,1.534l-.279.558a30.409,30.409,0,0,1,1.534,3.906,3.627,3.627,0,0,1-.7,3.627c-.418.279-1.255-.558-1.116.279s.558-1.395.418-2.371.279-2.092-.279-2.511-.837,3.487-3.208,3.906a4.742,4.742,0,0,1-.139,2.79c-2.232,2.232-2.371,3.487-2.092,4.185l.418.418c-.7-1.534,1.395-2.511,1.395-2.511s.837.7.279,2.929.279.837.7.976.279,1.953,0,2.929a12.553,12.553,0,0,1-.7,1.674,5.579,5.579,0,0,0-.7-2.371,5.44,5.44,0,0,0-.7-2.232c-.279.139-.837-1.534-.837-1.813s-1.116,2.092-.7,2.65l-.7.7a4.6,4.6,0,0,0,.139,1.255c.139.279,0,.418.139.7a1.953,1.953,0,0,0,.418.837c.558-.139.418,0,1.395-1.395a3.348,3.348,0,0,1-.418,1.674c-.139.279-.7.558-.7.7s-.976-.279-1.116-.279,0-.7-.418-1.116-.7-2.79-1.953-2.79-.279.139-.279.418.558,0,.837.418.7,1.255.418,1.813S55.619,48.7,55.34,48.143s.558,1.813.139,2.371-1.116-1.953-1.674-2.929,1.116-2.371,1.255-3.906.976-1.953,1.674-2.929-.279-1.116.279-1.255h.976Zm-.7-10.182h.418c.139.418-.279.976.279,1.116a2.232,2.232,0,0,1-.558,1.255,7.253,7.253,0,0,1-3.069-1.674H52.132c-.139-.139-.139-.418-.279-.418h-.139c-.7-.418.139-.976,0-1.534s.279-.7.558-.7h.418c.976.558,2.371,1.395,3.348.976l-.418-.279-1.395-.7-1.255-.418-.418-.279c-.418-.139-1.255-.418-1.116-.837a3.766,3.766,0,0,1,2.929-.139c.139-.418.139-.418.279-.558-1.953-.279-2.929-.139-2.929-.279h-.279c-.139-.837,1.534-.976,2.371-1.255s1.534.418,1.813-.139-2.232-.418-2.65-.418-1.813.976-1.674-.279,1.674-1.255.7-1.674-.558.7-.976.418.7-1.953,1.395-1.953l1.953.279c.279-.837-2.371.139-2.092-1.116h-.418c-.7.139-.7,1.395-1.116,1.953h0a3.208,3.208,0,0,1,.139-1.674c.558-.976.976-.976.976-.976a13.357,13.357,0,0,0-1.116-3.627c-.7-1.116,3.208-3.208,3.627-2.511h-.837A11.717,11.717,0,0,1,56.6,13.83c.7.279.418,1.395,1.116,1.674v-.837c.418-.976-.7-1.255-.837-2.092s1.395,1.116,1.395,2.232v1.116l.7-.418c.279.7-.279,1.674.558,1.813a10.322,10.322,0,0,0,.558,3.627l.279-1.255a9.113,9.113,0,0,1,0-1.953L59.943,16.2c1.674,2.092,1.395,3.069,1.116,3.627v1.116c.139-.558.558-.7.7-1.116s.418.279.7.558a10.182,10.182,0,0,1-.558,3.906c-.558-1.116,1.116-1.953.139-2.929a2.79,2.79,0,0,0-.558,1.674,2.308,2.308,0,0,0-.418,1.953H61.2c.139,0,.139.139.139.279l-.558.279a1.4,1.4,0,0,0-.279-1.116c-.558.837,0,2.092-1.255,2.232a3.348,3.348,0,0,0,.279-1.534c-.139-.418-.837-.837-.418-1.255s.837.279,1.255.279,0-1.674.7-2.511-.7.837-.837,1.534h-.558a4.045,4.045,0,0,0-.976-3.487s-1.813-1.255-1.255-2.232a1.674,1.674,0,0,0,.279-1.534l-.279.7c-.279.7-.558.418-.7.837v.976c-.7.139,0-1.255-.418-1.255s-.279.7-.418.837a5.3,5.3,0,0,0,.139,1.674c.976-1.255,1.674.558,2.371.976s.279,1.674.139,2.371-1.534.837-1.674,1.395,1.674-.139,1.813.558a1.674,1.674,0,0,1-.976,1.953c-.279,0-.558-.139-.7.139s.139.418.139.7.7,0,.7.418a1.4,1.4,0,0,1-.976.279l.279.279ZM50.6,16.062c-.139.7.139,1.255-.139,1.953V16.48c-.139-.139-.279.139-.418.139a.837.837,0,0,1,.418-.837Zm-9.764-3.906c.837-.139.837,1.116,1.674.7a.7.7,0,0,0,.7.139.663.663,0,0,1,.7-.418h0c.7-.279,1.395.976,2.092.139s.279,1.395.418,2.092a6.57,6.57,0,0,1-.279,2.79l-.418.418c-.558,0-.7-.139-.837-.418s-1.395-.976-1.813-2.232,0-1.116-.558-1.255.279.976-.418.976-.279-.837-.418-.976-.139-.558-.279-.837-.976.837-.976,1.534-1.255-.139-1.534-.7h0c.279.139.418-.279.558-.418s.7-.837,1.116-1.255M48.924,8.53a13.111,13.111,0,0,0,2.929,2.092,1.086,1.086,0,0,1-.976.418c-.418,0-.837-1.674-2.092-1.953s-.7.7-1.395.139-1.255-.139-1.953-.418A10.043,10.043,0,0,0,49.2,8.39M36.092,7.414l.558.976c.558,1.116,2.092,1.395,1.813,2.65s.279-.139.418-.139a2.092,2.092,0,0,1,.837-.7c1.116-.418,3.627.558,3.487.837s-1.395-.7-2.232-.279-1.534,1.395-2.511.837-.418-1.534-1.255-1.116a1.953,1.953,0,0,0-1.674.976c.7,1.255,2.65.279,2.65,1.674s.558-.139.7-.139a2.65,2.65,0,0,1-.7.976c-.558.139-.418-.418-.7-.7v-.418c-.558-.279-.976.139-1.534-.139s-.837-2.232-.418-3.208a18.273,18.273,0,0,0,.837-2.092M36.51,6.3c.976,2.65,3.627,2.79,6,2.929a11.717,11.717,0,0,1,7.672,1.953c-2.232-.7-4.463-2.092-7.811-1.534-.418.139-3.906,0-5.021-1.116s-1.116-1.255-1.116-2.092m1.395-.7c.558-.558.976.558,1.395.7,2.371,2.929,7.811.558,9.624,1.255v.418c-.976,0-2.232.558-3.069.279h-.418c-.139.139-4.882.976-6.416-.7s-1.395-.976-1.116-1.953M44.042,1.7c.418.7.976.279,1.534.7A7.253,7.253,0,0,1,47.39,3.927a6.277,6.277,0,0,1,1.116,2.79c-.558.837-1.395,0-2.092.418s0-.7-.139-.976.418-.837.7-.976-.558-.418-.837-.139V4.624c-.279-.418-.558.279-.837.139s.139,1.534.418,2.371-3.348.7-5.021-.279-.558-.139-.558-.418a4.868,4.868,0,0,1,1.116-3.766c1.395-1.395-1.395.558-1.813.837s-.7,1.255-1.116,1.674a5.161,5.161,0,0,1,2.371-3.208c1.255.279,2.371-.418,3.627-.279M42.508.858c.279-.418.7-.139.976.139v.418A1.534,1.534,0,0,1,42.508,1m2.092.279C44.042,1,43.624.3,43.066.021s-5.3,2.232-5.719,5.021-1.116.279-1.395.837-1.674,3.487-1.395,5.579a2.79,2.79,0,0,0,1.395,1.953c.976.139,1.116,1.395,2.65.837A13.112,13.112,0,0,0,40.973,15.5l.279.558c.139,1.255.7.418,1.534.7l.7.558h.7c.837.418.7.837,1.395.837s1.813-1.674,2.929-2.65a.7.7,0,0,1,1.116.418.512.512,0,0,1-.139.418c-.139.139,1.255,3.487.7,5.44s.558,3.208.7,4.742-.7,3.069.837,3.906c-.7,2.092-2.092,3.766-2.79,5.858s-5.3,1.953-5.021,5.3L42.368,42.7,27.3,53.862c-2.232,1.674-4.882,3.208-6.7,5.44s-3.208-.7-4.463.7-3.487-.279-4.463.139a12.693,12.693,0,0,0-.7,6.137s.139.279,1.255.7c7.253,2.511,15.483,2.65,23.433,3.208H38.6c9.206-.139,17.575-.418,26.5-2.232a17.017,17.017,0,0,0,5.3-1.813,30.269,30.269,0,0,0-.279-5.021c-.139-.418,0-1.116-.418-1.255s-3.348.279-5.021.139a6,6,0,0,1-.279-2.092c.976-1.116.139-2.65-.279-3.766a5.161,5.161,0,0,0-.7-5.021c.279-1.953-.976-4.045.418-5.719a11.856,11.856,0,0,1,3.208-5.579c1.813-2.232-.279-4.742-.837-6.974s.418-1.255.139-1.953A5.851,5.851,0,0,0,65.1,26.942a21.9,21.9,0,0,0-2.232-4.324A7.114,7.114,0,0,0,61.2,17.875c-.976-1.674-2.232-3.208-3.208-4.742a10.74,10.74,0,0,0-4.324-2.371C52.132,9.227,49.9,8.809,48.924,6.716A6.137,6.137,0,0,0,44.6,1.277M5.544,70.6a4.882,4.882,0,0,1,.418-1.116c.139-.279.558-.279.837-.139a1.813,1.813,0,0,1,.837,2.371c-.279.976-1.116,1.674-2.092,1.255l-.7-.418A1.054,1.054,0,0,1,4.987,72ZM1.778,74.227c-.279.837-.418,1.116-1.255.976S.1,75.2.1,75.343s0,.279.279.418l1.953.7,1.953.837a.512.512,0,0,0,.418-.139c.139-.139-.139-.418-.279-.418A1.391,1.391,0,0,1,4.15,75.2l.558-1.674c0-.139,0-.418.279-.279l.7.418.976.558a2.65,2.65,0,0,0,2.232-.139,2.929,2.929,0,0,0,1.395-1.534,2.232,2.232,0,0,0-.279-2.232,3.627,3.627,0,0,0-1.813-1.116l-2.79-.976-1.674-.7a.512.512,0,0,0-.418.139c-.139.139.139.279.279.418a1.608,1.608,0,0,1,.279,1.534Zm11.856-1.395c.279-.837.279-1.255,1.255-1.116s.418,0,.418-.139a.3.3,0,0,0-.279-.279l-1.953-.418-2.092-.558a.512.512,0,0,0-.418.139c-.139.139.139.279.418.418a1.247,1.247,0,0,1,.418,1.534l-1.255,4.742c-.279.837-.279,1.116-1.255.976s-.418,0-.418.279,0,.279.279.279l1.953.418,2.092.558a.512.512,0,0,0,.418-.139c.139-.139-.139-.418-.279-.418a1.348,1.348,0,0,1-.418-1.534Zm8.927,5.44-3.069-5.579c-.279-.558-.279-.558-.837-.558l-2.371-.418c-.139,0-.418-.139-.558.139s.279.279.418.418a1.7,1.7,0,0,1,.418,1.255l-.837,4.324a5.858,5.858,0,0,1-.418,1.534.558.558,0,0,1-.7.279c-.279,0-.558-.139-.558.139s.139.279.279.418h1.255l1.255.279c.139,0,.418,0,.418-.279s-.279-.279-.558-.418-.7-.279-.7-.7a6.137,6.137,0,0,1,.139-1.395l.837-4.6,4.185,7.811a1.393,1.393,0,0,0,.558.7c.279.139.418-.139.558-.558L23.4,74.506c.139-.558.139-1.255.837-1.116s.7.139.7-.139-.139-.279-.279-.279H23.4l-1.255-.279c-.139,0-.558-.139-.558.139s.279.279.418.279a.837.837,0,0,1,.7.558,2.929,2.929,0,0,1,0,.976Zm6.974-3.208c0-.139,0-.558.279-.558H31.07a1.674,1.674,0,0,1,1.116.418l.558.837c.139.139.139.418.418.418s.279-.139.279-.418V74.645c0-.279.139-.418-.139-.558l-4.324-.418-2.511-.279a.279.279,0,0,0-.418.279l.418.279c.837.279.837.7.7,1.534l-.418,4.882c-.139.837-.139,1.116-.976,1.116s-.418.139-.418.279a.3.3,0,0,0,.279.279l4.045.279,3.069.279c.139,0,.279,0,.279-.279L33.3,81.2v-.558c0-.279,0-.279-.279-.279s-.418.279-.558.418A2.371,2.371,0,0,1,30.094,81.9a1.4,1.4,0,0,1-.976-.558,2.092,2.092,0,0,1-.139-1.116V78.69c0-.418,0-.558.558-.558h.558c1.534.139.837,1.395,1.534,1.534s.279-.139.279-.418V76.738c0-.139,0-.418-.279-.418a.445.445,0,0,0-.418.418c0,.139-.279.7-.7.7H29.4c-.558,0-.418-.279-.418-.7Zm8.788,2.929c-.558,0-.558,0-.558-.558V76.04c0-.976,0-1.255.837-1.395s.418,0,.418-.279-.139-.279-.279-.279H34.557c-.139,0-.279,0-.279.279s.279.279.418.279a1.583,1.583,0,0,1,.837,1.395v5.021c0,.976,0,1.116-.837,1.255s-.418.139-.418.279a.3.3,0,0,0,.279.279h4.185c.139,0,.279,0,.279-.279s-.279-.279-.418-.279a1.313,1.313,0,0,1-.837-1.255V79.109c0-.558,0-.558.558-.558h2.511c.418,0,.418,0,.418.279v2.092c0,.976,0,1.116-.837,1.255s-.418.139-.418.279a.3.3,0,0,0,.279.279h4.185c.139,0,.279,0,.279-.279s-.279-.279-.418-.279a1.521,1.521,0,0,1-.837-1.255V76.18c0-.976,0-1.255.837-1.395s.418,0,.418-.279-.139-.279-.279-.279H40.416c-.139,0-.279,0-.279.279s.279.279.418.279a1.583,1.583,0,0,1,.837,1.395v1.395c0,.558,0,.558-.418.558Zm16.041-2.232a4.882,4.882,0,0,1,0-.976c.139-.418.279-.418.558-.558s.558,0,.418-.279a.279.279,0,0,0-.279-.279H52.551c-.139,0-.418,0-.418.279s.279.279.558.279a.837.837,0,0,1,.837.418,3.069,3.069,0,0,1,.139,1.116l.279,3.487a2.79,2.79,0,0,1-.279,1.953,2.371,2.371,0,0,1-1.953.976,1.953,1.953,0,0,1-2.092-.976,7.532,7.532,0,0,1-.279-2.232L49.064,75.9c0-.976-.139-1.255.837-1.395s.418-.139.418-.279-.139-.279-.418-.279H45.716c-.139,0-.279,0-.279.279s.279.279.418.279a1.313,1.313,0,0,1,.837,1.255l.279,3.766a2.511,2.511,0,0,0,1.255,2.511,5.579,5.579,0,0,0,2.79.418,4.324,4.324,0,0,0,2.65-.976,2.79,2.79,0,0,0,.7-2.511Zm5.44-1.255a5.3,5.3,0,0,1-.139-.7c0-.139.418-.279.558-.418a1.769,1.769,0,0,1,1.395,2.929,1.953,1.953,0,0,1-1.116.558c-.418,0-.279-.279-.418-.558Zm4.185,3.348a1.935,1.935,0,0,0-1.674-.976c-.837,0,2.232-1.116,2.092-2.371a2.092,2.092,0,0,0-1.116-1.534,2.929,2.929,0,0,0-1.813-.139l-3.208.558-1.953.279c-.139,0-.279.139-.279.418s.279.139.418.139a1.6,1.6,0,0,1,.976,1.255l.837,4.882c.139.837.279,1.116-.7,1.395s-.418.139-.279.418.139.279.418.279l1.953-.418,2.092-.279a.3.3,0,0,0,.279-.279c0-.139-.279-.279-.558-.279s-.837-.279-.976-1.116l-.279-1.813c0-.279-.139-.418.139-.418h.558l.837.976L63.43,81.2c.139.279.279.418.558.418H66.22c.139,0,.418-.139.418-.279a.3.3,0,0,0-.279-.279,2.178,2.178,0,0,1-1.116-.837Zm6.835-6.277c0-.279-.139-.418-.418-.558H68.591c-1.534.418-3.348,1.813-2.929,3.627s1.813,1.674,2.929,1.813,2.232.139,2.511,1.255-.7,1.674-1.534,1.813a2.092,2.092,0,0,1-1.534-.139,2.371,2.371,0,0,1-.837-.976c-.139-.279-.279-.558-.558-.558s-.139.558-.139.837v.837c.139.418.139.7.558.7a6.416,6.416,0,0,0,2.371-.139A3.906,3.906,0,0,0,71.8,78.69a2.929,2.929,0,0,0,.558-2.371c-.418-1.534-1.674-1.953-3.069-2.092h-.7c-.7,0-1.395-.139-1.534-.837s.558-1.395,1.255-1.534a2.106,2.106,0,0,1,1.953,1.116c.418.7.279.279.418.279s.139-.418.139-.558Zm6-1.813c-.139-.279-.139-.418.279-.558a2.207,2.207,0,0,1,2.092.558c.7.7.279.279.558.279s.139-.418.139-.7l-.418-1.813c0-.279-.139-.558-.418-.418a.418.418,0,0,0-.279.418c-.139.418-.418.558-.837.7L73.194,69.9c-.418.139-.418.279-.7-.139h-.279a.345.345,0,0,0-.139.558V72a1.256,1.256,0,0,0,0,.279.3.3,0,0,0,.279.279c.139,0,.279-.418.418-.7s.418-1.395,1.395-1.674.418-.139.558.279l1.953,5.579c.279.837.418,1.116-.418,1.534s-.279.279-.279.418.279.139.418.139l1.953-.7,2.092-.7c.139,0,.279-.139.279-.418s-.279-.139-.558-.139a1.339,1.339,0,0,1-1.255-.976ZM81.7,74.645h.7l.279.279a.279.279,0,0,1,0,.279h.139l-.279-.279h-.279v.418h0Zm.837.279a.139.139,0,0,0,0-.279h-.558v.418H82.4m.279-.976a1.12,1.12,0,0,1,.139,2.092h-.837a1.141,1.141,0,0,1,0-2.092h.837m0,.139h-.7a.976.976,0,0,0,0,1.813h.7a.971.971,0,0,0,0-1.813M24.793,87.478c0-.139,0-.558-.279-.558h-.279a13.948,13.948,0,0,1-3.069.976c-.279.139-.976.139-.976.558s.139.279.279.279h1.813a.279.279,0,0,1,.279.279,3.766,3.766,0,0,1,0,.7v5.161a1.328,1.328,0,0,1-.279.976h-.837c-.279,0-.7,0-.7.279s.279.279.418.279h4.742c.139,0,.558,0,.558-.279s-.418-.279-.7-.279-.7,0-.837-.279a2.79,2.79,0,0,1-.139-1.116Zm11.159,2.79-.279.279h-.279c-.7-.279-2.092-.7-2.092-1.674A1.4,1.4,0,0,1,34.7,87.617a1.48,1.48,0,0,1,1.116,2.511m.558,4.045a1.674,1.674,0,0,1-1.534,1.674,1.813,1.813,0,0,1-1.813-1.953,2.232,2.232,0,0,1,.418-1.255l.418-.418,1.116.418c.7.418,1.534.837,1.534,1.813m-5.3-.279c0,1.813,2.092,2.371,3.487,2.371a4.6,4.6,0,0,0,2.511-.7,2.63,2.63,0,0,0-.558-4.742l-.279-.279h.279a1.674,1.674,0,0,0,1.395-1.534,1.953,1.953,0,0,0-1.255-1.674,4.324,4.324,0,0,0-1.953-.418,3.906,3.906,0,0,0-2.371.7,2.232,2.232,0,0,0-.976,1.953,2.371,2.371,0,0,0,1.395,2.092h0l-1.116.558a1.813,1.813,0,0,0-.7,1.395m12.554,3.487a.279.279,0,0,0,.279.279,9.485,9.485,0,0,0,2.092-.7,9.066,9.066,0,0,0,2.232-1.534,6.277,6.277,0,0,0,2.232-4.6,3.766,3.766,0,0,0-3.627-3.906,3.348,3.348,0,0,0-3.348,3.348,2.79,2.79,0,0,0,2.65,2.79c.279,0,1.674-.139,1.674-.7h-.7a1.674,1.674,0,0,1-1.255-.976,4.045,4.045,0,0,1-.558-1.953,2.092,2.092,0,0,1,.279-1.255,1.116,1.116,0,0,1,.837-.418c.7,0,1.255.837,1.534,1.395a5.021,5.021,0,0,1,.418,2.092,6.416,6.416,0,0,1-4.185,6c-.139,0-.558.139-.558.418M60.5,89.152h.7a7.113,7.113,0,0,0,.418-1.255v-.418h-.139l-4.045.418c-.418,0-.558,0-.7.418l-.976,2.929v.418c0,.279.418.279.558.279a7.532,7.532,0,0,1,2.511.418,2.092,2.092,0,0,1,1.395,1.813c0,1.813-2.371,2.65-3.906,2.79s-.7,0-.7.279.279.279.558.279a8.23,8.23,0,0,0,3.906-.976A4.045,4.045,0,0,0,62.315,93.2a2.929,2.929,0,0,0-1.813-2.65,10.88,10.88,0,0,0-3.069-.558c-.139,0-.418,0-.418-.279s.418-.558.837-.558ZM54.085,31.545h-.418c-.558.279-.837.418-.558,1.116s.418-1.116.976-.837m3.906-9.485c.279-1.116-1.255-1.255-1.534-2.232h-.139c.139.7,1.534,1.395.418,1.534s-.976-.279-1.953.558l1.395.279c1.255-1.116,1.395.418,1.953-.279m-3.208-1.255c-.558.139-1.255-.418-1.534.418s1.255.139,1.534-.418M46.413,65.021s0-1.116-.279-1.395a28.734,28.734,0,0,0,0,4.882c.139.139.279-.139.139-.139V65.021Zm25.665-.279h.837a.279.279,0,0,1,.139.279V65.3h-.139a.279.279,0,0,0-.139-.279h-.418v.558h-.279Zm.7.558h-.418v.418h.418m.7-.7a1.395,1.395,0,0,1,0,1.674l-.837.279-.837-.279a1.395,1.395,0,0,1,0-1.674l.837-.279.837.279m-.139.139-.7-.279-.7.279a1.011,1.011,0,0,0,0,1.395l.7.279.7-.279a1.011,1.011,0,0,0,0-1.395" fill="#86764d"/>
</svg>